<?xml version="1.0" standalone="no"?>
<!DOCTYPE svg PUBLIC "-//W3C//DTD SVG 20010904//EN"
 "http://www.w3.org/TR/2001/REC-SVG-20010904/DTD/svg10.dtd">
<svg version="1.0" xmlns="http://www.w3.org/2000/svg"
 width="520.000000pt" height="520.000000pt" viewBox="0 0 520.000000 520.000000"
 preserveAspectRatio="xMidYMid meet">
<metadata>
Created by potrace 1.14, written by Peter Selinger 2001-2017
</metadata>
<g transform="translate(0.000000,520.000000) scale(0.100000,-0.100000)"
fill="#000000" stroke="none">
<path d="M895 4222 c-73 -24 -149 -102 -170 -175 -23 -78 -17 -146 17 -214 15
-30 38 -64 50 -75 13 -11 23 -23 23 -28 0 -5 4 -12 9 -17 5 -5 6 -3 2 5 -4 6
-2 12 3 12 6 0 11 -4 11 -9 0 -5 9 -11 21 -14 21 -6 21 -21 -1 -72 -4 -11 -99
-256 -211 -545 -111 -289 -207 -538 -214 -555 -7 -16 -41 -102 -74 -190 -34
-88 -66 -169 -71 -180 -22 -50 -79 -212 -81 -230 -1 -11 4 -40 11 -65 7 -25
13 -48 12 -52 -1 -5 2 -8 8 -8 5 0 10 -5 10 -12 0 -6 11 -26 26 -45 14 -18 21
-33 17 -33 -4 0 3 -6 17 -13 14 -7 26 -18 26 -25 4 -37 4 -37 13 -23 8 12 12
12 25 -1 8 -9 31 -26 51 -38 19 -12 33 -25 30 -29 -2 -5 7 -6 22 -3 18 3 24 1
19 -7 -5 -7 0 -11 13 -11 12 0 21 -5 21 -10 0 -6 3 -9 8 -8 14 4 112 -26 112
-34 0 -4 3 -7 8 -7 27 4 52 -2 46 -12 -5 -8 -2 -9 11 -2 22 13 57 5 48 -11 -4
-6 1 -5 10 3 9 7 17 10 17 5 0 -5 26 -10 58 -10 167 -5 191 -7 185 -18 -5 -8
-3 -8 8 0 8 6 26 11 41 10 14 -1 24 2 21 7 -3 5 1 7 8 6 13 -3 57 3 135 17 16
3 67 19 114 35 47 17 95 31 106 32 15 1 20 7 16 17 -5 13 -3 13 12 1 13 -11
16 -11 14 -1 -2 7 3 15 11 18 9 3 11 0 6 -8 -6 -9 -4 -11 4 -6 7 5 10 10 7 13
-9 10 71 70 87 65 4 -1 6 4 5 10 -2 7 3 12 10 10 8 -1 11 2 7 8 -3 5 1 13 9
16 9 3 13 11 9 17 -4 7 0 8 13 3 10 -4 15 -4 12 0 -11 11 21 66 34 58 6 -4 8
-3 4 4 -3 6 -1 23 5 39 28 73 23 112 -35 264 -31 79 -60 153 -65 164 -5 11
-44 110 -86 220 -80 206 -116 301 -190 490 -301 775 -285 731 -260 721 8 -3
15 -1 15 5 0 6 7 8 16 5 8 -3 12 -2 9 4 -7 11 29 32 40 22 5 -4 5 -2 2 4 -3 6
4 20 16 31 12 11 27 28 32 37 11 18 75 29 75 13 0 -5 7 -4 15 3 12 10 15 10
15 -1 0 -11 2 -11 10 1 9 13 10 13 10 0 0 -9 3 -11 8 -5 11 16 37 11 34 -5 -1
-10 3 -8 13 5 13 17 17 17 25 6 7 -12 11 -12 24 -2 12 11 16 11 16 1 0 -10 4
-10 16 1 13 10 17 10 24 0 4 -7 10 -9 13 -4 5 7 24 8 70 4 5 -1 5 -7 2 -13 -4
-7 1 -4 10 7 12 14 19 16 22 8 3 -7 9 -13 14 -13 6 0 7 6 3 13 -5 8 -2 8 9 -2
14 -11 17 -11 17 0 0 12 2 12 9 0 7 -11 10 -11 15 0 5 11 7 11 12 2 3 -7 10
-13 15 -13 6 0 7 6 3 13 -5 8 -2 8 9 -2 9 -7 17 -10 17 -5 0 5 28 9 62 8 49
-1 62 -4 60 -15 -1 -8 4 -6 13 6 13 17 17 17 25 6 7 -12 11 -12 24 -2 12 11
16 11 16 1 0 -10 4 -10 16 1 13 10 17 10 24 0 4 -7 10 -9 13 -4 5 7 24 8 70 4
5 -1 5 -7 2 -13 -4 -7 1 -4 10 7 12 14 19 16 22 8 3 -7 9 -13 14 -13 6 0 7 6
3 13 -5 8 -2 8 9 -2 14 -11 17 -11 17 0 0 12 2 12 9 0 7 -11 10 -11 15 0 5 11
7 11 12 2 3 -7 10 -13 15 -13 6 0 7 6 3 13 -5 8 -2 8 9 -2 9 -7 17 -10 17 -5
0 7 130 11 160 5 3 -1 6 -512 6 -1136 0 -1135 0 -1136 -21 -1139 -67 -12 -188
-41 -235 -56 -266 -85 -460 -264 -477 -443 -5 -48 -3 -56 17 -70 14 -9 19 -20
15 -28 -5 -8 -4 -10 4 -5 14 9 64 -1 57 -12 -2 -4 6 -7 17 -8 22 -1 72 -11 72
-14 0 -1 13 -3 28 -4 16 -1 32 -8 37 -16 6 -8 10 -10 10 -5 0 7 15 9 35 7 22
-3 33 -8 28 -16 -4 -8 -3 -8 7 1 8 7 22 8 42 2 17 -4 35 -6 41 -2 6 3 7 1 3
-5 -4 -7 -2 -12 3 -12 6 0 11 6 12 13 0 6 4 3 9 -8 5 -11 9 -14 9 -7 1 8 13
12 35 10 19 -1 32 -6 30 -10 -3 -4 0 -8 5 -8 6 0 11 4 11 10 0 5 6 7 14 4 7
-3 35 -6 61 -8 27 -1 50 -8 56 -17 7 -12 9 -12 9 1 0 13 19 14 127 12 83 -3
130 -8 135 -15 6 -9 8 -9 8 0 0 7 15 11 38 11 20 -1 76 0 123 2 48 2 92 -1 99
-5 9 -5 11 -4 6 3 -4 7 -1 12 9 12 12 0 15 -5 11 -17 -6 -17 -5 -17 8 0 7 9
24 17 37 17 46 -1 181 14 239 26 8 2 40 5 71 6 32 2 54 7 51 12 -3 5 2 7 11 3
9 -3 19 -2 23 4 3 6 12 8 20 5 7 -3 16 0 20 5 3 6 15 9 25 6 11 -3 16 -1 13 5
-3 5 0 8 7 7 8 -2 29 5 47 14 18 10 38 15 44 11 6 -4 8 -3 4 4 -3 6 1 15 10
20 14 8 16 20 11 67 -23 223 -296 420 -672 486 l-65 11 0 134 c0 74 0 532 0
1019 0 487 0 937 0 1002 0 64 3 113 7 110 3 -4 12 -2 20 4 10 9 13 8 13 -1 0
-10 4 -10 16 1 13 10 17 10 25 -2 5 -8 9 -9 9 -2 0 6 8 10 18 8 9 -1 16 -9 14
-16 -1 -8 5 -5 13 6 13 17 17 17 25 6 7 -12 11 -12 24 -2 13 11 16 11 16 0 0
-11 2 -11 10 1 9 13 10 13 10 0 0 -13 1 -13 10 0 9 13 10 13 10 0 0 -9 3 -11
8 -5 11 16 37 11 34 -5 -1 -10 3 -8 13 5 14 17 17 18 25 5 9 -13 10 -13 10 0
0 13 1 13 10 0 7 -10 13 -11 18 -5 11 17 88 11 84 -6 -1 -8 4 -6 13 6 13 17
17 17 25 6 7 -12 11 -12 24 -2 13 11 16 11 16 0 0 -11 2 -11 10 1 9 13 10 13
10 0 0 -13 1 -13 10 0 9 13 10 13 10 0 0 -9 3 -11 8 -5 11 16 37 11 34 -5 -1
-10 3 -8 13 5 14 17 17 18 25 5 9 -13 10 -13 10 0 0 13 1 13 10 0 7 -10 13
-11 18 -5 11 17 88 11 84 -6 -1 -8 4 -6 13 6 13 17 17 17 25 6 7 -12 11 -12
24 -2 13 11 16 11 16 0 0 -11 2 -11 10 1 9 13 10 13 10 0 0 -13 1 -13 10 0 9
13 10 13 10 0 0 -9 3 -11 8 -5 11 16 37 11 34 -5 -1 -10 3 -8 13 5 14 17 17
18 25 5 9 -13 10 -13 10 0 0 13 1 13 10 0 7 -11 12 -12 18 -3 10 16 48 9 44
-8 -1 -8 5 -5 14 6 11 14 18 16 21 8 3 -7 9 -13 14 -13 6 0 7 6 3 13 -5 8 -2
8 9 -2 14 -11 17 -11 17 0 0 12 2 12 9 0 7 -11 9 -11 14 0 5 12 7 12 15 1 5
-8 12 -13 16 -13 22 3 27 -1 21 -21 -4 -13 -3 -18 2 -11 6 8 16 5 35 -12 15
-13 24 -26 21 -29 -4 -3 1 -6 10 -6 9 0 17 -5 17 -10 0 -6 6 -9 13 -8 6 2 11
-2 10 -9 -2 -7 4 -10 12 -7 15 6 21 -16 8 -30 -4 -3 -8 -12 -9 -19 -1 -7 -22
-64 -47 -127 -122 -310 -503 -1293 -524 -1350 -13 -36 -30 -78 -37 -95 -43
-97 -50 -134 -38 -192 6 -30 9 -60 5 -66 -3 -6 -1 -7 5 -3 6 4 18 -8 27 -28 9
-19 25 -42 36 -52 10 -9 19 -23 19 -31 0 -7 6 -12 13 -10 6 1 11 -4 9 -11 -1
-8 1 -11 6 -8 5 3 19 -5 33 -17 13 -12 45 -33 72 -47 26 -14 47 -29 47 -33 0
-5 4 -6 8 -3 5 3 25 -4 45 -14 20 -11 46 -20 56 -20 11 0 23 -5 27 -12 5 -7 3
-8 -6 -3 -9 5 -11 4 -6 -4 6 -9 11 -9 22 0 8 6 14 7 14 2 0 -5 12 -10 28 -11
44 -3 122 -23 128 -33 3 -5 11 -9 17 -9 7 0 6 4 -3 10 -11 7 -2 9 30 6 25 -2
55 -4 68 -5 13 -1 21 -5 17 -10 -3 -5 -1 -13 5 -16 6 -4 9 -1 8 7 -2 9 13 13
55 15 31 1 55 -2 52 -7 -3 -5 0 -12 6 -16 7 -4 9 -3 5 4 -14 23 67 40 93 19
11 -9 13 -9 8 0 -4 6 -3 14 2 17 5 3 11 -1 15 -9 3 -8 11 -15 18 -15 9 0 9 3
-2 10 -21 13 -8 20 43 23 25 1 43 6 40 10 -3 5 1 7 8 6 8 -1 27 3 43 10 16 6
36 9 45 6 8 -3 12 -3 8 1 -10 10 132 76 146 67 6 -3 7 -1 3 5 -8 13 28 35 39
24 3 -4 5 -1 3 7 -2 7 3 16 11 19 9 3 11 0 6 -8 -5 -9 -4 -11 4 -6 6 4 9 11 6
15 -5 10 56 67 68 63 5 -1 6 2 2 7 -3 6 3 19 15 31 11 11 20 21 19 23 0 1 5
16 12 32 40 99 38 122 -35 308 -36 92 -66 170 -66 173 0 3 -6 20 -14 37 -8 18
-42 104 -76 192 -73 188 -90 231 -250 645 -210 543 -210 542 -195 528 4 -4 28
7 54 25 25 17 49 31 53 29 5 -1 7 1 6 6 -2 4 8 23 22 42 38 51 49 93 47 168
-4 108 -55 190 -152 240 -41 21 -64 26 -130 26 -95 1 -137 -16 -205 -83 l-45
-45 -1369 -1 -1369 -1 -53 53 c-82 79 -179 102 -289 65z m143 -649 c98 -257
204 -533 227 -588 22 -54 44 -112 122 -315 13 -36 28 -74 33 -85 5 -11 36 -90
69 -175 32 -85 76 -197 95 -247 20 -51 36 -95 36 -97 0 -3 -18 1 -40 9 -48 17
-176 45 -240 52 -25 2 -74 8 -110 13 -70 9 -502 5 -560 -5 -19 -3 -73 -12
-120 -20 -48 -8 -114 -23 -148 -34 -34 -10 -62 -17 -62 -15 0 3 262 679 558
1441 48 123 72 173 83 173 11 0 28 -33 57 -107z m3217 60 c10 -27 41 -109 70
-183 29 -74 92 -236 140 -360 48 -124 109 -283 137 -355 27 -71 54 -139 58
-150 5 -11 26 -63 46 -115 120 -312 154 -402 154 -405 0 -2 -18 2 -40 10 -42
15 -169 43 -230 51 -140 18 -222 22 -420 19 -124 -2 -234 -5 -245 -8 -11 -2
-42 -8 -68 -11 -27 -4 -57 -9 -67 -11 -9 -2 -33 -6 -52 -9 -18 -3 -62 -14 -96
-25 -34 -10 -62 -17 -62 -15 0 2 111 288 246 636 135 348 275 711 312 806 74
192 87 205 117 125z"/>
<path d="M1360 3800 c-9 -6 -10 -10 -3 -10 6 0 15 5 18 10 8 12 4 12 -15 0z"/>
<path d="M1840 3800 c-9 -6 -10 -10 -3 -10 6 0 15 5 18 10 8 12 4 12 -15 0z"/>
<path d="M2316 3798 c3 -5 10 -6 15 -3 13 9 11 12 -6 12 -8 0 -12 -4 -9 -9z"/>
<path d="M2353 3795 c0 -8 4 -12 9 -9 5 3 6 10 3 15 -9 13 -12 11 -12 -6z"/>
<path d="M3196 3798 c3 -5 10 -6 15 -3 13 9 11 12 -6 12 -8 0 -12 -4 -9 -9z"/>
<path d="M3516 3798 c3 -5 10 -6 15 -3 13 9 11 12 -6 12 -8 0 -12 -4 -9 -9z"/>
<path d="M1570 1626 c0 -2 7 -7 16 -10 8 -3 12 -2 9 4 -6 10 -25 14 -25 6z"/>
<path d="M3820 1526 c0 -2 8 -10 18 -17 15 -13 16 -12 3 4 -13 16 -21 21 -21
13z"/>
<path d="M1290 1499 c0 -5 5 -7 10 -4 6 3 10 8 10 11 0 2 -4 4 -10 4 -5 0 -10
-5 -10 -11z"/>
<path d="M1330 1506 c0 -2 7 -7 16 -10 8 -3 12 -2 9 4 -6 10 -25 14 -25 6z"/>
<path d="M1190 1479 c0 -5 5 -7 10 -4 6 3 10 8 10 11 0 2 -4 4 -10 4 -5 0 -10
-5 -10 -11z"/>
<path d="M1149 1463 c-13 -16 -12 -17 4 -4 9 7 17 15 17 17 0 8 -8 3 -21 -13z"/>
<path d="M796 1458 c3 -4 11 -5 19 -1 21 7 19 12 -4 10 -11 0 -18 -5 -15 -9z"/>
<path d="M4226 1458 c3 -5 10 -6 15 -3 13 9 11 12 -6 12 -8 0 -12 -4 -9 -9z"/>
<path d="M1716 918 c3 -5 10 -6 15 -3 13 9 11 12 -6 12 -8 0 -12 -4 -9 -9z"/>
<path d="M2475 831 c-3 -5 -2 -12 3 -15 5 -3 9 1 9 9 0 17 -3 19 -12 6z"/>
</g>
</svg>
